<?xml version="1.0" encoding="utf-8"?>
<!-- Generator: Adobe Illustrator 27.4.0, SVG Export Plug-In . SVG Version: 6.00 Build 0)  -->
<svg version="1.1" id="Layer_1" xmlns="http://www.w3.org/2000/svg" xmlns:xlink="http://www.w3.org/1999/xlink" x="0px" y="0px"
	 viewBox="0 0 481.6 481.6" style="enable-background:new 0 0 481.6 481.6;" xml:space="preserve">
<style type="text/css">
	.st0{fill-rule:evenodd;clip-rule:evenodd;fill:#FFFFFF;}
</style>
<path class="st0" d="M317.9,349.2c-12.4,0-23.1-7.2-28.2-17.7c0,0,0,0,0,0c-0.2-0.4-0.4-0.8-0.6-1.3c0-0.1-0.1-0.2-0.1-0.3
	c-0.1-0.3-0.3-0.7-0.4-1c0-0.1-0.1-0.3-0.1-0.5c-0.1-0.3-0.2-0.6-0.3-0.9c0-0.2-0.1-0.4-0.2-0.6c-0.1-0.2-0.1-0.5-0.2-0.8
	c0-0.2-0.1-0.4-0.2-0.7c0-0.2-0.1-0.5-0.2-0.7c0-0.2-0.1-0.5-0.1-0.7c0-0.2-0.1-0.5-0.1-0.7c0-0.2-0.1-0.5-0.1-0.7
	c0-0.2,0-0.5-0.1-0.8c0-0.2,0-0.4-0.1-0.7c0-0.3,0-0.6,0-0.9c0-0.2,0-0.4,0-0.6c0-0.5,0-1,0-1.5c0-17.3,14.1-31.3,31.3-31.3
	c0.5,0,1,0,1.5,0c0.2,0,0.4,0,0.6,0c0.3,0,0.6,0,0.9,0c0.2,0,0.4,0,0.7,0.1s0.5,0,0.8,0.1c0.2,0,0.5,0.1,0.7,0.1
	c0.2,0,0.5,0.1,0.7,0.1c0.2,0,0.5,0.1,0.7,0.1c0.2,0,0.5,0.1,0.7,0.1c0.2,0,0.4,0.1,0.7,0.2c0.2,0,0.5,0.1,0.8,0.2
	c0.2,0,0.4,0.1,0.6,0.2c0.3,0.1,0.6,0.2,0.9,0.3c0.1,0,0.3,0.1,0.5,0.2c0.3,0.1,0.7,0.2,1,0.4c0.1,0,0.2,0.1,0.3,0.1
	c0.4,0.2,0.8,0.3,1.2,0.5c0,0,0,0,0,0c10.5,5.1,17.7,15.8,17.7,28.2C349.2,335.2,335.2,349.2,317.9,349.2 M240.8,349.2
	c-25.9,0-50.5-9.1-70.1-25.7c8.6-15.3,23.7-29.5,38.5-36.3c0.3,0.2,0.6,0.3,0.9,0.5c0.1,0.1,0.3,0.2,0.5,0.3
	c0.5,0.3,1.1,0.6,1.6,0.9c0.1,0,0.2,0.1,0.3,0.1c0.4,0.2,0.9,0.5,1.4,0.7c0.1,0.1,0.3,0.1,0.5,0.2c0.4,0.2,0.8,0.4,1.2,0.6
	c0.1,0.1,0.3,0.1,0.5,0.2c0.4,0.2,0.8,0.3,1.3,0.5c0.1,0,0.3,0.1,0.4,0.2c0.5,0.2,1,0.4,1.5,0.6c0.1,0,0.1,0,0.2,0.1
	c0.6,0.2,1.2,0.4,1.8,0.6c0.9,0.3,1.8,0.3,2.7,0c1.4-0.4,2.6-1.5,3.1-3c0.8-2.4-0.5-5-2.9-5.8c-3.5-1.1-6.8-2.7-10-4.5
	c-0.8-0.4-1.6-0.9-2.3-1.4l0,0c-6.6-4.3-12.2-10.2-16.3-16.9c-4.9-8.2-7.5-17.6-7.5-27.3c0-29.1,23.7-52.8,52.8-52.8
	c29.1,0,52.8,23.7,52.8,52.8c0,18.1-9.1,34.5-23.7,44c-0.1,0-0.1,0.1-0.2,0.1c-1.9,1.3-3.9,2.4-6,3.4l0,0c-0.4,0.2-0.8,0.4-1.2,0.6
	c-0.2,0.1-0.4,0.2-0.7,0.3c-0.3,0.1-0.6,0.2-0.9,0.4c-0.4,0.1-0.8,0.3-1.2,0.5c-0.2,0-0.3,0.1-0.5,0.2c-0.6,0.2-1.2,0.4-1.9,0.6
	c-2.4,0.8-3.7,3.4-3,5.8c0,0.1,0.1,0.3,0.1,0.4c0,0,0,0.1,0,0.1c0,0.1,0.1,0.2,0.1,0.2c0,0,0,0.1,0.1,0.1c0,0.1,0.1,0.1,0.1,0.2
	c0,0,0,0.1,0.1,0.1c0,0.1,0.1,0.2,0.2,0.3l0,0c0.1,0.1,0.1,0.2,0.2,0.2c0,0,0.1,0,0.1,0.1c0,0,0.1,0.1,0.2,0.1c0,0,0.1,0,0.1,0.1
	c0,0,0.1,0.1,0.2,0.1c0,0,0.1,0,0.1,0.1c0.1,0,0.1,0.1,0.2,0.1c0,0,0.1,0,0.2,0.1s0.2,0.1,0.3,0.1c0,0,0.1,0,0.1,0c0,0,0.1,0,0.2,0
	c0,0,0.1,0,0.2,0c0,0,0.1,0,0.2,0c0,0,0.1,0,0.2,0c0,0,0.1,0,0.2,0c0.1,0,0.2,0,0.3,0c0,0,0.1,0,0.2,0l0,0c0,0,0.1,0,0.2,0
	s0.1,0,0.2,0s0.1,0,0.2,0c0,0,0.1,0,0.2,0c0.1,0,0.1,0,0.2,0c0,0,0.1,0,0.2,0c0,0,0.1,0,0.2,0c0.7-0.2,1.4-0.5,2.1-0.7
	c0.1,0,0.3-0.1,0.5-0.2c0.5-0.2,1-0.4,1.6-0.6c0.3-0.1,0.5-0.2,0.8-0.3c0.5-0.2,0.9-0.4,1.4-0.6c0.4-0.2,0.9-0.4,1.4-0.6
	c0,0,0.1,0,0.2-0.1c1.5-0.7,3-1.5,4.4-2.4c4,1.9,8.1,4.2,12.1,7.1c-4.8,6.7-7.6,14.8-7.6,23.6c0,0.4,0,0.9,0,1.3c0,0.1,0,0.2,0,0.3
	c0,0.4,0,0.8,0,1.2c0,0,0,0.1,0,0.1c0,0.4,0.1,0.9,0.1,1.4c0,0,0,0.1,0,0.2c0,0.4,0.1,0.8,0.1,1.3c0,0,0,0,0,0.1
	c0,0.4,0.1,0.9,0.2,1.4c0,0,0,0,0,0.1c0.1,0.4,0.1,0.8,0.2,1.3c0,0,0,0.1,0,0.1c0.1,0.4,0.2,0.9,0.3,1.3c0,0,0,0.1,0,0.1
	c0.1,0.4,0.2,0.7,0.3,1.1c0,0.1,0,0.2,0.1,0.3c0.1,0.4,0.2,0.8,0.4,1.2c0,0.1,0.1,0.3,0.1,0.4c0.1,0.2,0.2,0.5,0.2,0.7
	c0.1,0.2,0.1,0.4,0.2,0.6c0,0.1,0.1,0.3,0.2,0.4c0.2,0.4,0.4,0.9,0.6,1.4c0,0,0,0.1,0,0.1c0.9,1.9,1.9,3.8,3.1,5.6
	C270.4,346.2,255.9,349.2,240.8,349.2 M132.4,240.8c0-28.9,11.3-56.2,31.8-76.6c20.5-20.5,47.7-31.8,76.6-31.8s56.2,11.3,76.6,31.8
	c20.5,20.5,31.8,47.7,31.8,76.6c0,15.1-3,29.6-9,43.3c-1.8-1.2-3.6-2.2-5.6-3.1c0,0-0.1,0-0.2-0.1c-0.4-0.2-0.8-0.3-1.2-0.5
	c-0.2,0-0.3-0.1-0.5-0.2c-0.2,0-0.4-0.1-0.5-0.2c-0.2-0.1-0.5-0.2-0.8-0.3c-0.1,0-0.2-0.1-0.3-0.1c-0.4-0.1-0.8-0.2-1.2-0.4
	c-0.1,0-0.2,0-0.3-0.1c-0.4-0.1-0.8-0.2-1.2-0.3c0,0,0,0-0.1,0c-0.4-0.1-0.9-0.2-1.3-0.3c0,0-0.1,0-0.1,0c-0.4-0.1-0.9-0.2-1.3-0.2
	c0,0,0,0-0.1,0c-0.4-0.1-0.9-0.1-1.4-0.2h-0.1c-0.4,0-0.8-0.1-1.3-0.1c0,0-0.1,0-0.2,0c-0.4,0-0.9-0.1-1.4-0.1c0,0-0.1,0-0.1,0
	c-0.4,0-0.8,0-1.2,0c-0.1,0-0.2,0-0.3,0c-0.4,0-0.9,0-1.3,0c-10.2,0-19.6,3.8-26.7,10.1c-3.3-2.4-6.6-4.5-9.9-6.3
	c13.5-11.5,21.7-28.6,21.7-47.2c0-34.2-27.8-62-62-62s-62,27.8-62,62c0,11.3,3.1,22.4,8.9,32c3.5,5.7,7.8,10.8,12.9,15.2
	c-14.3,7.9-28.3,21.3-37,36C143.6,296.7,132.4,269.6,132.4,240.8 M358.4,240.8c0-31.4-12.2-60.9-34.5-83.1
	c-22.2-22.2-51.7-34.5-83.1-34.5s-60.9,12.2-83.1,34.5c-22.2,22.2-34.5,51.7-34.5,83.1s12.2,60.9,34.5,83.1
	c22.2,22.2,51.7,34.5,83.1,34.5c17.3,0,33.9-3.6,49.5-10.9c7.2,6.8,17,10.9,27.6,10.9c22.3,0,40.5-18.1,40.5-40.5
	c0-10.6-4.1-20.4-10.9-27.6C354.7,274.7,358.4,258.1,358.4,240.8 M330.4,305.3c-1.8-1.8-4.7-1.8-6.5,0l-5.9,5.9l-5.9-5.9
	c-1.8-1.8-4.7-1.8-6.5,0c-1.8,1.8-1.8,4.7,0,6.5l5.9,5.9l-5.9,5.9c-1.8,1.8-1.8,4.7,0,6.5c0.9,0.9,2.1,1.3,3.3,1.3s2.4-0.4,3.3-1.3
	l5.9-5.9l5.9,5.9c0.9,0.9,2.1,1.3,3.3,1.3s2.4-0.4,3.3-1.3c1.8-1.8,1.8-4.7,0-6.5l-5.9-5.9l5.9-5.9
	C332.2,310,332.2,307.1,330.4,305.3"/>
</svg>
